Coordinates
version=1
nRows=17
nColumns=24
inDegrees=yes

Units are S.I. units (second, meters, Newtons, ...)
Angles are in degrees.

endheader
time	pelvis_tilt	pelvis_list	pelvis_rotation	pelvis_tx	pelvis_ty	pelvis_tz	hip_flexion_r	hip_adduction_r	hip_rotation_r	knee_angle_r	ankle_angle_r	subtalar_angle_r	mtp_angle_r	hip_flexion_l	hip_adduction_l	hip_rotation_l	knee_angle_l	ankle_angle_l	subtalar_angle_l	mtp_angle_l	lumbar_extension	lumbar_bending	lumbar_rotation
      0.99133333	     -6.01629757	     -3.46179433	     -1.79985613	     -0.10752131	      1.01562773	      0.29739427	     -5.70108907	      8.80074544	      2.68822926	     -9.40964758	      9.74979163	     -5.79916636	      1.90571789	     25.43846493	     -3.43952409	     -1.80530044	      2.54987183	      3.18223496	     -7.14791356	     -3.27295411	     -0.37828520	      2.18142915	      4.79908991
      0.99550000	     -6.09376876	     -3.40859470	     -1.88009826	     -0.10157652	      1.01498583	      0.29706792	     -5.68864389	      8.70512365	      2.65533918	     -9.98871376	      9.88675022	     -5.65415308	      1.91338727	     25.47385983	     -3.33473816	     -1.50109702	      2.45244477	      3.12676008	     -7.02202177	     -3.08243830	     -0.24843897	      2.12032912	      4.85389010
      0.99966667	     -6.15283382	     -3.34159592	     -1.95356619	     -0.09561481	      1.01439559	      0.29672497	     -5.67278797	      8.59457157	      2.61905496	    -10.61331794	     10.02329928	     -5.50173875	      1.93907855	     25.49185060	     -3.21313026	     -1.20210193	      2.28512753	      3.03013651	     -6.91867704	     -2.86462799	     -0.14751875	      2.04854613	      4.92151684
      1.00383333	     -6.13899538	     -3.26485644	     -2.00250332	     -0.08964321	      1.01393650	      0.29631240	     -5.70329565	      8.46535737	      2.48976532	    -11.29591599	     10.18830643	     -5.24273982	      2.09819695	     25.43638405	     -3.06888236	     -0.90600705	      2.05532554	      2.88555634	     -6.81989734	     -1.88968251	     -0.15601648	      1.98283041	      4.99117730
      1.00800000	     -6.18434506	     -3.17022272	     -2.07384347	     -0.08367059	      1.01342350	      0.29596822	     -5.66643178	      8.33781744	      2.53857396	    -11.97684314	     10.16510129	     -5.35960655	      2.11164674	     25.46425396	     -2.91892145	     -0.69801391	      1.71980878	      2.72133253	     -6.75240406	     -1.83731044	     -0.09155494	      1.86947030	      5.00198648
      1.01216667	     -6.27423227	     -3.07460197	     -2.15273956	     -0.07765284	      1.01285617	      0.29562120	     -5.53682418	      8.20371891	      2.52259444	    -12.75899821	     10.22069351	     -5.26839122	      2.17074875	     25.52567796	     -2.77196457	     -0.44287424	      1.36030119	      2.50532481	     -6.73469727	     -1.67424320	      0.09299143	      1.73912872	      5.08064009
      1.01633333	     -6.29253986	     -2.95681689	     -2.21022841	     -0.07163336	      1.01241948	      0.29521151	     -5.45381481	      8.03924394	      2.45001496	    -13.59189523	     10.27389640	     -5.13094497	      2.27403332	     25.51427492	     -2.59035144	     -0.19758968	      0.95226785	      2.25397286	     -6.76069266	     -1.43053669	      0.13065091	      1.61924431	      5.16077616
      1.02050000	     -6.29468501	     -2.85640379	     -2.27075426	     -0.06563135	      1.01202433	      0.29478820	     -5.35118420	      7.89035118	      2.35496768	    -14.49480126	     10.31373837	     -4.95398924	      2.52417165	     25.49571645	     -2.42626474	      0.04047291	      0.48787504	      1.95914358	     -6.89434127	     -0.91352924	      0.15822988	      1.52833986	      5.24966889
      1.02466667	     -6.23408037	     -2.72192388	     -2.31426663	     -0.05955781	      1.01176263	      0.29437285	     -5.32080406	      7.71418947	      2.31120502	    -15.37448389	     10.21377880	     -4.99738873	      4.08756433	     25.38746328	     -2.22447640	      0.26000318	      0.04449445	      1.51474525	     -7.03015275	      1.91657742	      0.10689030	      1.35734609	      5.27200208
      1.02883333	     -6.25906049	     -2.59047407	     -2.35978107	     -0.05348517	      1.01138970	      0.29394543	     -5.15941081	      7.54667986	      2.26446494	    -16.32605405	     10.03857548	     -5.06879987	      4.11808194	     25.40811948	     -2.02940133	      0.40633168	     -0.51835815	      1.26872912	     -7.01429891	      1.94835641	      0.18716794	      1.19278251	      5.30184150
      1.03300000	     -6.23229305	     -2.43979639	     -2.40763077	     -0.04739986	      1.01113775	      0.29349695	     -5.01614898	      7.34882205	      2.17294683	    -17.34792700	      9.90268995	     -5.04279692	      4.18823336	     25.35697422	     -1.81409324	      0.55573344	     -1.06798569	      0.92204173	     -7.10654186	      2.00182568	      0.19608185	      1.01343687	      5.35662109
      1.03716667	     -6.20514537	     -2.30059639	     -2.44766859	     -0.04134657	      1.01089418	      0.29300706	     -4.82783613	      7.15601242	      2.02605715	    -18.45166905	      9.78192514	     -4.92985871	      4.36480554	     25.31073509	     -1.60367074	      0.75315260	     -1.64054529	      0.52015890	     -7.37424821	      2.11901037	      0.19557091	      0.86581320	      5.43436870
      1.04133333	     -6.16669466	     -2.14022305	     -2.48008467	     -0.03525256	      1.01070316	      0.29250060	     -4.62756741	      6.93836177	      1.86178536	    -19.58956063	      9.55712254	     -4.88442133	      4.67395470	     25.23926046	     -1.36979753	      0.95691191	     -2.20268379	      0.10024710	     -7.66306045	      2.29872018	      0.19266668	      0.68823307	      5.47687553
      1.04550000	     -6.09420630	     -1.96670916	     -2.49672121	     -0.02913899	      1.01058924	      0.29196191	     -4.43441099	      6.69807026	      1.64135564	    -20.76854579	      9.25154666	     -4.82598991	      5.28412884	     25.13073104	     -1.11606646	      1.16004984	     -2.77776853	     -0.29753167	     -7.98166809	      2.60051583	      0.15564745	      0.47782512	      5.52198022
      1.04966667	     -6.03847841	     -1.78358242	     -2.53477184	     -0.02304327	      1.01049670	      0.29144013	     -4.18516062	      6.44425648	      1.44555360	    -22.01096724	      8.91464552	     -4.78590406	      5.84928366	     25.04901796	     -0.86742921	      1.25825157	     -3.37763696	     -0.71543483	     -8.20797854	      2.82398256	      0.12961228	      0.27808037	      5.55220519
      1.05383333	     -5.95577725	     -1.58834690	     -2.54846870	     -0.01692571	      1.01048352	      0.29090977	     -3.95464450	      6.18088748	      1.24778913	    -23.24928738	      8.41457891	     -4.84892499	      5.97877594	     24.94920171	     -0.60417730	      1.31415021	     -4.00970395	     -1.04921468	     -8.27327161	      2.86427825	      0.05829679	      0.01113512	      5.54697466
      1.05800000	     -5.89428278	     -1.40727089	     -2.55392798	     -0.01085098	      1.01045295	      0.29031284	     -3.65096527	      5.91409950	      0.96404586	    -24.55709143	      7.81584406	     -4.89363348	      9.72818895	     24.86471869	     -0.34268276	      1.49653002	     -4.62645526	     -1.47345144	     -8.68933238	      3.80878180	      0.01944415	     -0.19324881	      5.54128805
